<svg viewBox="0 0 64 64" fill="none" xmlns="http://www.w3.org/2000/svg">
  <rect x="8" y="8" width="48" height="48" rx="8" fill="#ed7519" fill-opacity="0.2"/>
  <path d="M32 16C23.16 16 16 23.16 16 32C16 40.84 23.16 48 32 48C40.84 48 48 40.84 48 32C48 23.16 40.84 16 32 16ZM32 44C25.38 44 20 38.62 20 32C20 25.38 25.38 20 32 20C38.62 20 44 25.38 44 32C44 38.62 38.62 44 32 44Z" fill="#ed7519"/>
  <circle cx="32" cy="32" r="6" fill="#ed7519"/>
  <path d="M32 26V22M32 42V38M38 32H42M22 32H26" stroke="#ed7519" stroke-width="2" stroke-linecap="round"/>
</svg>
